<svg width="24" height="25" viewBox="0 0 24 25" fill="none" xmlns="http://www.w3.org/2000/svg">
<path d="M7.49878 16.8706C8.04878 16.8706 8.49878 17.3206 8.49878 17.8706C8.49878 18.9706 7.59878 19.8706 6.49878 19.8706C6.32878 19.8706 6.16878 19.8506 5.99878 19.8206C6.30878 19.2706 6.49878 18.6106 6.49878 17.8706C6.49878 17.3206 6.94878 16.8706 7.49878 16.8706ZM19.1688 3.87061C18.9088 3.87061 18.6588 3.97061 18.4588 4.16061L9.49878 13.1206L12.2488 15.8706L21.2088 6.91061C21.5988 6.52061 21.5988 5.89061 21.2088 5.50061L19.8688 4.16061C19.6688 3.96061 19.4188 3.87061 19.1688 3.87061ZM7.49878 14.8706C5.83878 14.8706 4.49878 16.2106 4.49878 17.8706C4.49878 19.1806 3.33878 19.8706 2.49878 19.8706C3.41878 21.0906 4.98878 21.8706 6.49878 21.8706C8.70878 21.8706 10.4988 20.0806 10.4988 17.8706C10.4988 16.2106 9.15878 14.8706 7.49878 14.8706Z" fill="#5995ED"/>
</svg>
