<svg width="54" height="46" viewBox="0 0 54 46" fill="none" xmlns="http://www.w3.org/2000/svg">
<path fill-rule="evenodd" clip-rule="evenodd" d="M31.3894 31.8256C32.6239 30.5842 33.3869 28.8733 33.3869 26.9842C33.3869 23.1923 30.3129 20.1184 26.5211 20.1184C22.7292 20.1184 19.6553 23.1923 19.6553 26.9842C19.6553 28.7922 20.3541 30.437 21.4964 31.6631L19.6844 33.4654C18.083 31.7767 17.1006 29.4952 17.1006 26.9842C17.1006 21.7814 21.3183 17.5637 26.5211 17.5637C31.7239 17.5637 35.9416 21.7814 35.9416 26.9842C35.9416 29.5763 34.8947 31.9239 33.2007 33.6272L31.3894 31.8256Z" fill="#001A25"/>
<path fill-rule="evenodd" clip-rule="evenodd" d="M35.5579 35.6538C37.7687 33.4309 39.135 30.3671 39.135 26.9843C39.135 20.1942 33.6305 14.6897 26.8405 14.6897C20.0504 14.6897 14.5459 20.1942 14.5459 26.9843C14.5459 30.2862 15.8476 33.2841 17.9658 35.4928L16.1542 37.2947C13.5767 34.6238 11.9912 30.9892 11.9912 26.9843C11.9912 18.7832 18.6394 12.135 26.8405 12.135C35.0415 12.135 41.6897 18.7832 41.6897 26.9843C41.6897 31.0701 40.0395 34.7706 37.3692 37.4554L35.5579 35.6538Z" fill="#5995ED"/>
<path fill-rule="evenodd" clip-rule="evenodd" d="M39.8596 39.9326C43.1618 36.6126 45.2025 32.0366 45.2025 26.9841C45.2025 16.843 36.9815 8.62209 26.8405 8.62209C16.6995 8.62209 8.47854 16.843 8.47854 26.9841C8.47854 31.9557 10.4544 36.4658 13.6636 39.772L11.8522 41.5737C8.18354 37.8055 5.92383 32.6587 5.92383 26.9841C5.92383 15.4321 15.2885 6.06738 26.8405 6.06738C38.3925 6.06738 47.7572 15.4321 47.7572 26.9841C47.7572 32.7396 45.4325 37.9522 41.6709 41.7342L39.8596 39.9326Z" fill="#00090D"/>
<path fill-rule="evenodd" clip-rule="evenodd" d="M44.2073 43.9396C48.5722 39.5513 51.2697 33.5029 51.2697 26.8244C51.2697 13.4206 40.4038 2.55471 27 2.55471C13.5962 2.55471 2.73025 13.4206 2.73025 26.8244C2.73025 33.5029 5.42777 39.5514 9.79269 43.9396L7.98139 45.7412C3.15701 40.891 0.175537 34.2059 0.175537 26.8244C0.175537 12.0097 12.1852 0 27 0C41.8147 0 53.8244 12.0097 53.8244 26.8244C53.8244 34.2059 50.843 40.891 46.0186 45.7412L44.2073 43.9396Z" fill="#00090D"/>
</svg>
