<svg width="54" height="47" viewBox="0 0 54 47" fill="none" xmlns="http://www.w3.org/2000/svg">
<path fill-rule="evenodd" clip-rule="evenodd" d="M31.3894 32.2733C32.6239 31.0319 33.3869 29.321 33.3869 27.432C33.3869 23.6401 30.3129 20.5662 26.5211 20.5662C22.7292 20.5662 19.6553 23.6401 19.6553 27.432C19.6553 29.24 20.3541 30.8847 21.4964 32.1109L19.6844 33.9132C18.083 32.2245 17.1006 29.943 17.1006 27.432C17.1006 22.2292 21.3183 18.0115 26.5211 18.0115C31.7239 18.0115 35.9416 22.2292 35.9416 27.432C35.9416 30.024 34.8947 32.3716 33.2007 34.0749L31.3894 32.2733Z" fill="#001A25"/>
<path fill-rule="evenodd" clip-rule="evenodd" d="M35.5579 36.1016C37.7687 33.8786 39.135 30.8149 39.135 27.432C39.135 20.6419 33.6305 15.1375 26.8405 15.1375C20.0504 15.1375 14.5459 20.6419 14.5459 27.432C14.5459 30.7339 15.8476 33.7318 17.9658 35.9406L16.1542 37.7424C13.5767 35.0716 11.9912 31.4369 11.9912 27.432C11.9912 19.231 18.6394 12.5828 26.8405 12.5828C35.0415 12.5828 41.6897 19.231 41.6897 27.432C41.6897 31.5179 40.0395 35.2183 37.3692 37.9032L35.5579 36.1016Z" fill="#001A25"/>
<path fill-rule="evenodd" clip-rule="evenodd" d="M39.8596 40.3803C43.1618 37.0603 45.2025 32.4844 45.2025 27.4318C45.2025 17.2908 36.9815 9.06985 26.8405 9.06985C16.6995 9.06985 8.47854 17.2908 8.47854 27.4318C8.47854 32.4034 10.4544 36.9135 13.6636 40.2198L11.8522 42.0215C8.18354 38.2532 5.92383 33.1064 5.92383 27.4318C5.92383 15.8799 15.2885 6.51514 26.8405 6.51514C38.3925 6.51514 47.7572 15.8799 47.7572 27.4318C47.7572 33.1874 45.4325 38.4 41.6709 42.1819L39.8596 40.3803Z" fill="#001A25"/>
<path fill-rule="evenodd" clip-rule="evenodd" d="M44.2072 44.3873C48.5721 39.999 51.2696 33.9506 51.2696 27.2721C51.2696 13.8683 40.4037 3.00237 26.9999 3.00237C13.5961 3.00237 2.73017 13.8683 2.73017 27.2721C2.73017 33.9506 5.42769 39.999 9.79262 44.3873L7.98132 46.1889C3.15693 41.3387 0.175461 34.6536 0.175461 27.2721C0.175461 12.4574 12.1852 0.447664 26.9999 0.447664C41.8146 0.447664 53.8243 12.4574 53.8243 27.2721C53.8243 34.6536 50.8429 41.3387 46.0185 46.1889L44.2072 44.3873Z" fill="#036E67"/>
</svg>
