<svg width="24" height="24" viewBox="0 0 24 24" fill="none" xmlns="http://www.w3.org/2000/svg">
<path fill-rule="evenodd" clip-rule="evenodd" d="M14.7794 3.66164C15.4082 3.87121 15.7479 4.5508 15.5384 5.17953L10.7384 19.5795C10.5288 20.2083 9.84921 20.5481 9.22048 20.3385C8.59175 20.1289 8.25195 19.4493 8.46153 18.8206L13.2615 4.42058C13.4711 3.79185 14.1507 3.45206 14.7794 3.66164ZM6.84848 7.55153C7.31711 8.02016 7.31711 8.77996 6.84848 9.24859L4.09701 12.0001L6.84848 14.7515C7.31711 15.2202 7.31711 15.98 6.84848 16.4486C6.37985 16.9172 5.62005 16.9172 5.15142 16.4486L1.55142 12.8486C1.08279 12.38 1.08279 11.6202 1.55142 11.1515L5.15142 7.55153C5.62005 7.0829 6.37985 7.0829 6.84848 7.55153ZM17.1514 7.55153C17.6201 7.0829 18.3798 7.0829 18.8485 7.55153L22.4485 11.1515C22.9171 11.6202 22.9171 12.38 22.4485 12.8486L18.8485 16.4486C18.3798 16.9172 17.6201 16.9172 17.1514 16.4486C16.6828 15.98 16.6828 15.2202 17.1514 14.7515L19.9029 12.0001L17.1514 9.24859C16.6828 8.77996 16.6828 8.02016 17.1514 7.55153Z" fill="#5995ED"/>
</svg>
