<svg width="24" height="24" viewBox="0 0 24 24" fill="none" xmlns="http://www.w3.org/2000/svg">
<path fill-rule="evenodd" clip-rule="evenodd" d="M14.7795 3.66164C15.4082 3.87121 15.748 4.5508 15.5384 5.17953L10.7384 19.5795C10.5289 20.2083 9.84927 20.5481 9.22054 20.3385C8.59181 20.1289 8.25201 19.4493 8.46159 18.8206L13.2616 4.42058C13.4712 3.79185 14.1508 3.45206 14.7795 3.66164ZM6.84854 7.55153C7.31717 8.02016 7.31717 8.77996 6.84854 9.24859L4.09707 12.0001L6.84854 14.7515C7.31717 15.2202 7.31717 15.98 6.84854 16.4486C6.37991 16.9172 5.62011 16.9172 5.15148 16.4486L1.55148 12.8486C1.08285 12.38 1.08285 11.6202 1.55148 11.1515L5.15148 7.55153C5.62011 7.0829 6.37991 7.0829 6.84854 7.55153ZM17.1515 7.55153C17.6201 7.0829 18.3799 7.0829 18.8485 7.55153L22.4485 11.1515C22.9172 11.6202 22.9172 12.38 22.4485 12.8486L18.8485 16.4486C18.3799 16.9172 17.6201 16.9172 17.1515 16.4486C16.6829 15.98 16.6829 15.2202 17.1515 14.7515L19.903 12.0001L17.1515 9.24859C16.6829 8.77996 16.6829 8.02016 17.1515 7.55153Z" fill="#5995ED"/>
</svg>
