<svg width="24" height="25" viewBox="0 0 24 25" fill="none" xmlns="http://www.w3.org/2000/svg">
<path fill-rule="evenodd" clip-rule="evenodd" d="M14.7794 4.10927C15.4082 4.31885 15.7479 4.99843 15.5384 5.62716L10.7384 20.0272C10.5288 20.6559 9.84921 20.9957 9.22048 20.7861C8.59175 20.5765 8.25195 19.8969 8.46153 19.2682L13.2615 4.86822C13.4711 4.23948 14.1507 3.89969 14.7794 4.10927ZM6.84848 7.99916C7.31711 8.46779 7.31711 9.22759 6.84848 9.69622L4.09701 12.4477L6.84848 15.1992C7.31711 15.6678 7.31711 16.4276 6.84848 16.8962C6.37985 17.3648 5.62005 17.3648 5.15142 16.8962L1.55142 13.2962C1.08279 12.8276 1.08279 12.0678 1.55142 11.5992L5.15142 7.99916C5.62005 7.53053 6.37985 7.53053 6.84848 7.99916ZM17.1514 7.99916C17.6201 7.53053 18.3798 7.53053 18.8485 7.99916L22.4485 11.5992C22.9171 12.0678 22.9171 12.8276 22.4485 13.2962L18.8485 16.8962C18.3798 17.3648 17.6201 17.3648 17.1514 16.8962C16.6828 16.4276 16.6828 15.6678 17.1514 15.1992L19.9029 12.4477L17.1514 9.69622C16.6828 9.22759 16.6828 8.46779 17.1514 7.99916Z" fill="#5995ED"/>
</svg>
