<svg width="24" height="24" viewBox="0 0 24 24" fill="none" xmlns="http://www.w3.org/2000/svg">
<path d="M6.0004 14.9996C5.1704 14.9996 4.4204 15.3396 3.8804 15.8796C2.7004 17.0596 2.0004 21.9996 2.0004 21.9996C2.0004 21.9996 6.9404 21.2996 8.1204 20.1196C8.6604 19.5796 9.0004 18.8296 9.0004 17.9996C9.0004 16.3396 7.6604 14.9996 6.0004 14.9996ZM6.7104 18.7096C6.4304 18.9896 4.5404 19.4696 4.5404 19.4696C4.5404 19.4696 5.0104 17.5896 5.3004 17.2996C5.4704 17.1096 5.7204 16.9996 6.0004 16.9996C6.5504 16.9996 7.0004 17.4496 7.0004 17.9996C7.0004 18.2796 6.8904 18.5296 6.7104 18.7096ZM17.4204 13.6496C23.7804 7.28957 21.6604 2.33957 21.6604 2.33957C21.6604 2.33957 16.7104 0.219566 10.3504 6.57957L7.8604 6.07957C7.2104 5.94957 6.5304 6.15957 6.0504 6.62957L2.0004 10.6896L7.0004 12.8296L11.1704 16.9996L13.3104 21.9996L17.3604 17.9496C17.8304 17.4796 18.0404 16.7996 17.9104 16.1396L17.4204 13.6496ZM7.4104 10.8296L5.5004 10.0096L7.4704 8.03957L8.9104 8.32957C8.3404 9.15957 7.8304 10.0296 7.4104 10.8296ZM13.9904 18.4996L13.1704 16.5896C13.9704 16.1696 14.8404 15.6596 15.6604 15.0896L15.9504 16.5296L13.9904 18.4996ZM16.0004 12.2396C14.6804 13.5596 12.6204 14.6396 11.9604 14.9696L9.0304 12.0396C9.3504 11.3896 10.4304 9.32957 11.7604 7.99957C16.4404 3.31957 19.9904 4.00957 19.9904 4.00957C19.9904 4.00957 20.6804 7.55957 16.0004 12.2396ZM15.0004 10.9996C16.1004 10.9996 17.0004 10.0996 17.0004 8.99957C17.0004 7.89957 16.1004 6.99957 15.0004 6.99957C13.9004 6.99957 13.0004 7.89957 13.0004 8.99957C13.0004 10.0996 13.9004 10.9996 15.0004 10.9996Z" fill="#5995ED"/>
</svg>
