<svg width="24" height="25" viewBox="0 0 24 25" fill="none" xmlns="http://www.w3.org/2000/svg">
<path d="M7.49878 16.4478C8.04878 16.4478 8.49878 16.8978 8.49878 17.4478C8.49878 18.5478 7.59878 19.4478 6.49878 19.4478C6.32878 19.4478 6.16878 19.4278 5.99878 19.3978C6.30878 18.8478 6.49878 18.1878 6.49878 17.4478C6.49878 16.8978 6.94878 16.4478 7.49878 16.4478ZM19.1688 3.44775C18.9088 3.44775 18.6588 3.54775 18.4588 3.73775L9.49878 12.6978L12.2488 15.4478L21.2088 6.48775C21.5988 6.09775 21.5988 5.46775 21.2088 5.07775L19.8688 3.73775C19.6688 3.53775 19.4188 3.44775 19.1688 3.44775ZM7.49878 14.4478C5.83878 14.4478 4.49878 15.7878 4.49878 17.4478C4.49878 18.7578 3.33878 19.4478 2.49878 19.4478C3.41878 20.6678 4.98878 21.4478 6.49878 21.4478C8.70878 21.4478 10.4988 19.6578 10.4988 17.4478C10.4988 15.7878 9.15878 14.4478 7.49878 14.4478Z" fill="#5995ED"/>
</svg>
