<svg width="54" height="47" viewBox="0 0 54 47" fill="none" xmlns="http://www.w3.org/2000/svg">
<path fill-rule="evenodd" clip-rule="evenodd" d="M31.3894 32.2733C32.6239 31.0319 33.3869 29.321 33.3869 27.432C33.3869 23.6401 30.3129 20.5662 26.5211 20.5662C22.7292 20.5662 19.6553 23.6401 19.6553 27.432C19.6553 29.24 20.3541 30.8847 21.4964 32.1109L19.6844 33.9132C18.083 32.2245 17.1006 29.943 17.1006 27.432C17.1006 22.2292 21.3183 18.0115 26.5211 18.0115C31.7239 18.0115 35.9416 22.2292 35.9416 27.432C35.9416 30.024 34.8947 32.3716 33.2007 34.0749L31.3894 32.2733Z" fill="#001A25"/>
<path fill-rule="evenodd" clip-rule="evenodd" d="M35.5577 36.1016C37.7685 33.8786 39.1348 30.8149 39.1348 27.432C39.1348 20.6419 33.6303 15.1375 26.8402 15.1375C20.0502 15.1375 14.5457 20.6419 14.5457 27.432C14.5457 30.7339 15.8474 33.7318 17.9656 35.9406L16.154 37.7424C13.5765 35.0716 11.991 31.4369 11.991 27.432C11.991 19.231 18.6392 12.5828 26.8402 12.5828C35.0412 12.5828 41.6895 19.231 41.6895 27.432C41.6895 31.5179 40.0393 35.2183 37.369 37.9032L35.5577 36.1016Z" fill="#5995ED"/>
<path fill-rule="evenodd" clip-rule="evenodd" d="M39.8594 40.3803C43.1615 37.0602 45.2023 32.4843 45.2023 27.4317C45.2023 17.2907 36.9813 9.06976 26.8403 9.06976C16.6992 9.06976 8.47832 17.2907 8.47832 27.4317C8.47832 32.4033 10.4541 36.9135 13.6634 40.2197L11.852 42.0214C8.18332 38.2531 5.92361 33.1063 5.92361 27.4317C5.92361 15.8798 15.2883 6.51505 26.8403 6.51505C38.3922 6.51505 47.757 15.8798 47.757 27.4317C47.757 33.1873 45.4323 38.3999 41.6707 42.1819L39.8594 40.3803Z" fill="#00090D"/>
<path fill-rule="evenodd" clip-rule="evenodd" d="M44.2072 44.3873C48.5721 39.999 51.2696 33.9506 51.2696 27.2721C51.2696 13.8683 40.4037 3.00237 26.9999 3.00237C13.5961 3.00237 2.73017 13.8683 2.73017 27.2721C2.73017 33.9506 5.42769 39.999 9.79262 44.3873L7.98132 46.1889C3.15693 41.3387 0.175461 34.6536 0.175461 27.2721C0.175461 12.4574 12.1852 0.447664 26.9999 0.447664C41.8146 0.447664 53.8243 12.4574 53.8243 27.2721C53.8243 34.6536 50.8429 41.3387 46.0185 46.1889L44.2072 44.3873Z" fill="#00090D"/>
</svg>
