<svg width="41" height="35" viewBox="0 0 41 35" fill="none" xmlns="http://www.w3.org/2000/svg">
<path fill-rule="evenodd" clip-rule="evenodd" d="M23.8495 24.4506C24.7768 23.5181 25.3499 22.2329 25.3499 20.8139C25.3499 17.9656 23.0409 15.6566 20.1926 15.6566C17.3442 15.6566 15.0352 17.9656 15.0352 20.8139C15.0352 22.1721 15.5602 23.4076 16.4183 24.3286L15.0572 25.6825C13.8542 24.414 13.1162 22.7001 13.1162 20.8139C13.1162 16.9057 16.2844 13.7375 20.1926 13.7375C24.1007 13.7375 27.2689 16.9057 27.2689 20.8139C27.2689 22.761 26.4825 24.5244 25.2101 25.8039L23.8495 24.4506Z" fill="#001A25"/>
<path fill-rule="evenodd" clip-rule="evenodd" d="M26.9805 27.3263C28.6412 25.6565 29.6676 23.3551 29.6676 20.8139C29.6676 15.7134 25.5328 11.5787 20.4323 11.5787C15.3318 11.5787 11.1971 15.7134 11.1971 20.8139C11.1971 23.2942 12.1749 25.5462 13.766 27.2053L12.4052 28.5588C10.469 26.5525 9.27808 23.8223 9.27808 20.8139C9.27808 14.6536 14.272 9.65967 20.4323 9.65967C26.5927 9.65967 31.5866 14.6536 31.5866 20.8139C31.5866 23.8832 30.347 26.6628 28.3411 28.6796L26.9805 27.3263Z" fill="#001A25"/>
<path fill-rule="evenodd" clip-rule="evenodd" d="M30.2119 30.5402C32.6924 28.0463 34.2253 24.609 34.2253 20.8137C34.2253 13.1961 28.05 7.02082 20.4324 7.02082C12.8148 7.02082 6.63947 13.1961 6.63947 20.8137C6.63947 24.5482 8.12363 27.936 10.5343 30.4196L9.17361 31.773C6.41786 28.9424 4.72046 25.0763 4.72046 20.8137C4.72046 12.1363 11.7549 5.10181 20.4324 5.10181C29.1098 5.10181 36.1443 12.1363 36.1443 20.8137C36.1443 25.1371 34.3981 29.0526 31.5725 31.8935L30.2119 30.5402Z" fill="#9B28CC"/>
<path fill-rule="evenodd" clip-rule="evenodd" d="M33.4778 33.5501C36.7565 30.2538 38.7828 25.7105 38.7828 20.6938C38.7828 10.6253 30.6207 2.4632 20.5522 2.4632C10.4837 2.4632 2.3216 10.6253 2.3216 20.6938C2.3216 25.7104 4.34788 30.2538 7.62664 33.5501L6.26605 34.9034C2.64216 31.2601 0.402588 26.2385 0.402588 20.6938C0.402588 9.56549 9.42388 0.544189 20.5522 0.544189C31.6806 0.544189 40.7018 9.56549 40.7018 20.6938C40.7018 26.2385 38.4623 31.2601 34.8384 34.9034L33.4778 33.5501Z" fill="#001A25"/>
</svg>
