<svg width="54" height="47" viewBox="0 0 54 47" fill="none" xmlns="http://www.w3.org/2000/svg">
<path fill-rule="evenodd" clip-rule="evenodd" d="M31.2139 32.2733C32.4484 31.032 33.2114 29.3211 33.2114 27.432C33.2114 23.6401 30.1375 20.5662 26.3456 20.5662C22.5537 20.5662 19.4798 23.6401 19.4798 27.432C19.4798 29.24 20.1787 30.8847 21.3209 32.1109L19.5089 33.9132C17.9075 32.2245 16.9251 29.943 16.9251 27.432C16.9251 22.2292 21.1428 18.0115 26.3456 18.0115C31.5484 18.0115 35.7661 22.2292 35.7661 27.432C35.7661 30.0241 34.7192 32.3716 33.0252 34.0749L31.2139 32.2733Z" fill="#FD8721"/>
<path fill-rule="evenodd" clip-rule="evenodd" d="M35.3824 36.1016C37.5932 33.8786 38.9595 30.8149 38.9595 27.432C38.9595 20.6419 33.455 15.1375 26.6649 15.1375C19.8748 15.1375 14.3704 20.6419 14.3704 27.432C14.3704 30.7339 15.672 33.7318 17.7902 35.9406L15.9787 37.7424C13.4012 35.0716 11.8157 31.4369 11.8157 27.432C11.8157 19.231 18.4639 12.5828 26.6649 12.5828C34.8659 12.5828 41.5142 19.231 41.5142 27.432C41.5142 31.5179 39.8639 35.2183 37.1937 37.9032L35.3824 36.1016Z" fill="#001A25"/>
<path fill-rule="evenodd" clip-rule="evenodd" d="M39.6839 40.3803C42.986 37.0602 45.0267 32.4843 45.0267 27.4317C45.0267 17.2907 36.8058 9.06976 26.6647 9.06976C16.5237 9.06976 8.30278 17.2907 8.30278 27.4317C8.30278 32.4033 10.2786 36.9135 13.4879 40.2197L11.6765 42.0214C8.00779 38.2531 5.74807 33.1063 5.74807 27.4317C5.74807 15.8798 15.1128 6.51505 26.6647 6.51505C38.2167 6.51505 47.5814 15.8798 47.5814 27.4317C47.5814 33.1873 45.2568 38.3999 41.4952 42.1819L39.6839 40.3803Z" fill="#00090D"/>
<path fill-rule="evenodd" clip-rule="evenodd" d="M44.0317 44.3873C48.3966 39.999 51.0941 33.9506 51.0941 27.2721C51.0941 13.8683 40.2282 3.00237 26.8244 3.00237C13.4206 3.00237 2.55463 13.8683 2.55463 27.2721C2.55463 33.9506 5.25216 39.999 9.61708 44.3873L7.80578 46.1889C2.9814 41.3387 -7.62939e-05 34.6536 -7.62939e-05 27.2721C-7.62939e-05 12.4574 12.0096 0.447664 26.8244 0.447664C41.6391 0.447664 53.6488 12.4574 53.6488 27.2721C53.6488 34.6536 50.6673 41.3387 45.843 46.1889L44.0317 44.3873Z" fill="#00090D"/>
</svg>
