<svg width="54" height="47" viewBox="0 0 54 47" fill="none" xmlns="http://www.w3.org/2000/svg">
<path fill-rule="evenodd" clip-rule="evenodd" d="M31.2138 32.2733C32.4484 31.0319 33.2113 29.321 33.2113 27.432C33.2113 23.6401 30.1374 20.5662 26.3455 20.5662C22.5537 20.5662 19.4798 23.6401 19.4798 27.432C19.4798 29.24 20.1786 30.8847 21.3209 32.1109L19.5089 33.9132C17.9075 32.2245 16.925 29.943 16.925 27.432C16.925 22.2292 21.1427 18.0115 26.3455 18.0115C31.5483 18.0115 35.766 22.2292 35.766 27.432C35.766 30.024 34.7191 32.3716 33.0251 34.0749L31.2138 32.2733Z" fill="#00090D"/>
<path fill-rule="evenodd" clip-rule="evenodd" d="M35.3824 36.1016C37.5932 33.8786 38.9595 30.8149 38.9595 27.432C38.9595 20.6419 33.455 15.1375 26.6649 15.1375C19.8748 15.1375 14.3704 20.6419 14.3704 27.432C14.3704 30.7339 15.672 33.7318 17.7902 35.9406L15.9787 37.7424C13.4012 35.0716 11.8157 31.4369 11.8157 27.432C11.8157 19.231 18.4639 12.5828 26.6649 12.5828C34.8659 12.5828 41.5142 19.231 41.5142 27.432C41.5142 31.5179 39.8639 35.2183 37.1937 37.9032L35.3824 36.1016Z" fill="#001A25"/>
<path fill-rule="evenodd" clip-rule="evenodd" d="M39.6841 40.3803C42.9862 37.0603 45.0269 32.4844 45.0269 27.4318C45.0269 17.2908 36.806 9.06985 26.665 9.06985C16.5239 9.06985 8.303 17.2908 8.303 27.4318C8.303 32.4034 10.2788 36.9135 13.4881 40.2198L11.6767 42.0215C8.00801 38.2532 5.74829 33.1064 5.74829 27.4318C5.74829 15.8799 15.113 6.51514 26.665 6.51514C38.2169 6.51514 47.5816 15.8799 47.5816 27.4318C47.5816 33.1874 45.257 38.4 41.4954 42.1819L39.6841 40.3803Z" fill="#9B28CC"/>
<path fill-rule="evenodd" clip-rule="evenodd" d="M44.0318 44.3874C48.3967 39.9991 51.0942 33.9507 51.0942 27.2722C51.0942 13.8684 40.2282 3.00246 26.8244 3.00246C13.4206 3.00246 2.55471 13.8684 2.55471 27.2722C2.55471 33.9507 5.25223 39.9991 9.61716 44.3874L7.80586 46.189C2.98147 41.3388 0 34.6537 0 27.2722C0 12.4575 12.0097 0.447754 26.8244 0.447754C41.6392 0.447754 53.6489 12.4575 53.6489 27.2722C53.6489 34.6537 50.6674 41.3388 45.8431 46.1889L44.0318 44.3874Z" fill="#00090D"/>
</svg>
