<svg width="24" height="25" viewBox="0 0 24 25" fill="none" xmlns="http://www.w3.org/2000/svg">
<path fill-rule="evenodd" clip-rule="evenodd" d="M14.7794 4.53224C15.4082 4.74182 15.7479 5.4214 15.5384 6.05014L10.7384 20.4501C10.5288 21.0789 9.84921 21.4187 9.22048 21.2091C8.59175 20.9995 8.25195 20.3199 8.46153 19.6912L13.2615 5.29119C13.4711 4.66246 14.1507 4.32267 14.7794 4.53224ZM6.84848 8.42213C7.31711 8.89076 7.31711 9.65056 6.84848 10.1192L4.09701 12.8707L6.84848 15.6221C7.31711 16.0908 7.31711 16.8506 6.84848 17.3192C6.37985 17.7878 5.62005 17.7878 5.15142 17.3192L1.55142 13.7192C1.08279 13.2506 1.08279 12.4908 1.55142 12.0221L5.15142 8.42213C5.62005 7.95351 6.37985 7.95351 6.84848 8.42213ZM17.1514 8.42213C17.6201 7.95351 18.3798 7.95351 18.8485 8.42213L22.4485 12.0221C22.9171 12.4908 22.9171 13.2506 22.4485 13.7192L18.8485 17.3192C18.3798 17.7878 17.6201 17.7878 17.1514 17.3192C16.6828 16.8506 16.6828 16.0908 17.1514 15.6221L19.9029 12.8707L17.1514 10.1192C16.6828 9.65056 16.6828 8.89076 17.1514 8.42213Z" fill="#5995ED"/>
</svg>
