<svg width="24" height="24" viewBox="0 0 24 24" fill="none" xmlns="http://www.w3.org/2000/svg">
<path fill-rule="evenodd" clip-rule="evenodd" d="M14.7795 3.66151C15.4082 3.87109 15.748 4.55068 15.5384 5.17941L10.7384 19.5794C10.5288 20.2081 9.84925 20.5479 9.22052 20.3384C8.59179 20.1288 8.252 19.4492 8.46158 18.8205L13.2616 4.42046C13.4712 3.79173 14.1507 3.45194 14.7795 3.66151ZM6.84853 7.55141C7.31715 8.02004 7.31715 8.77983 6.84853 9.24846L4.09705 11.9999L6.84853 14.7514C7.31715 15.22 7.31715 15.9798 6.84853 16.4485C6.3799 16.9171 5.6201 16.9171 5.15147 16.4485L1.55147 12.8485C1.08284 12.3798 1.08284 11.62 1.55147 11.1514L5.15147 7.55141C5.6201 7.08278 6.3799 7.08278 6.84853 7.55141ZM17.1515 7.55141C17.6201 7.08278 18.3799 7.08278 18.8485 7.55141L22.4485 11.1514C22.9172 11.62 22.9172 12.3798 22.4485 12.8485L18.8485 16.4485C18.3799 16.9171 17.6201 16.9171 17.1515 16.4485C16.6828 15.9798 16.6828 15.22 17.1515 14.7514L19.9029 11.9999L17.1515 9.24846C16.6828 8.77983 16.6828 8.02004 17.1515 7.55141Z" fill="#5995ED"/>
</svg>
