<svg width="24" height="25" viewBox="0 0 24 25" fill="none" xmlns="http://www.w3.org/2000/svg">
<path d="M21 4.44775C19.89 4.09775 18.67 3.94775 17.5 3.94775C15.55 3.94775 13.45 4.34775 12 5.44775C10.55 4.34775 8.45 3.94775 6.5 3.94775C4.55 3.94775 2.45 4.34775 1 5.44775V20.0978C1 20.3478 1.25 20.5978 1.5 20.5978C1.6 20.5978 1.65 20.5478 1.75 20.5478C3.1 19.8978 5.05 19.4478 6.5 19.4478C8.45 19.4478 10.55 19.8478 12 20.9478C13.35 20.0978 15.8 19.4478 17.5 19.4478C19.15 19.4478 20.85 19.7478 22.25 20.4978C22.35 20.5478 22.4 20.5478 22.5 20.5478C22.75 20.5478 23 20.2978 23 20.0478V5.44775C22.4 4.99775 21.75 4.69775 21 4.44775ZM21 17.9478C19.9 17.5978 18.7 17.4478 17.5 17.4478C15.8 17.4478 13.35 18.0978 12 18.9478V7.44775C13.35 6.59775 15.8 5.94775 17.5 5.94775C18.7 5.94775 19.9 6.09775 21 6.44775V17.9478Z" fill="#5995ED"/>
<path d="M17.5 9.94775C18.38 9.94775 19.23 10.0378 20 10.2078V8.68775C19.21 8.53775 18.36 8.44775 17.5 8.44775C15.8 8.44775 14.26 8.73775 13 9.27775V10.9378C14.13 10.2978 15.7 9.94775 17.5 9.94775Z" fill="#5995ED"/>
<path d="M13 11.9378V13.5978C14.13 12.9578 15.7 12.6078 17.5 12.6078C18.38 12.6078 19.23 12.6978 20 12.8678V11.3478C19.21 11.1978 18.36 11.1078 17.5 11.1078C15.8 11.1078 14.26 11.4078 13 11.9378Z" fill="#5995ED"/>
<path d="M17.5 13.7778C15.8 13.7778 14.26 14.0678 13 14.6078V16.2678C14.13 15.6278 15.7 15.2778 17.5 15.2778C18.38 15.2778 19.23 15.3678 20 15.5378V14.0178C19.21 13.8578 18.36 13.7778 17.5 13.7778Z" fill="#5995ED"/>
</svg>
