<svg width="24" height="25" viewBox="0 0 24 25" fill="none" xmlns="http://www.w3.org/2000/svg">
<path d="M21 4.87061C19.89 4.52061 18.67 4.37061 17.5 4.37061C15.55 4.37061 13.45 4.77061 12 5.87061C10.55 4.77061 8.45 4.37061 6.5 4.37061C4.55 4.37061 2.45 4.77061 1 5.87061V20.5206C1 20.7706 1.25 21.0206 1.5 21.0206C1.6 21.0206 1.65 20.9706 1.75 20.9706C3.1 20.3206 5.05 19.8706 6.5 19.8706C8.45 19.8706 10.55 20.2706 12 21.3706C13.35 20.5206 15.8 19.8706 17.5 19.8706C19.15 19.8706 20.85 20.1706 22.25 20.9206C22.35 20.9706 22.4 20.9706 22.5 20.9706C22.75 20.9706 23 20.7206 23 20.4706V5.87061C22.4 5.42061 21.75 5.12061 21 4.87061ZM21 18.3706C19.9 18.0206 18.7 17.8706 17.5 17.8706C15.8 17.8706 13.35 18.5206 12 19.3706V7.87061C13.35 7.02061 15.8 6.37061 17.5 6.37061C18.7 6.37061 19.9 6.52061 21 6.87061V18.3706Z" fill="#5995ED"/>
<path d="M17.5 10.3706C18.38 10.3706 19.23 10.4606 20 10.6306V9.11061C19.21 8.96061 18.36 8.87061 17.5 8.87061C15.8 8.87061 14.26 9.16061 13 9.70061V11.3606C14.13 10.7206 15.7 10.3706 17.5 10.3706Z" fill="#5995ED"/>
<path d="M13 12.3606V14.0206C14.13 13.3806 15.7 13.0306 17.5 13.0306C18.38 13.0306 19.23 13.1206 20 13.2906V11.7706C19.21 11.6206 18.36 11.5306 17.5 11.5306C15.8 11.5306 14.26 11.8306 13 12.3606Z" fill="#5995ED"/>
<path d="M17.5 14.2006C15.8 14.2006 14.26 14.4906 13 15.0306V16.6906C14.13 16.0506 15.7 15.7006 17.5 15.7006C18.38 15.7006 19.23 15.7906 20 15.9606V14.4406C19.21 14.2806 18.36 14.2006 17.5 14.2006Z" fill="#5995ED"/>
</svg>
