<svg width="24" height="25" viewBox="0 0 24 25" fill="none" xmlns="http://www.w3.org/2000/svg">
<path d="M6.00049 15.8702C5.17049 15.8702 4.42049 16.2102 3.88049 16.7502C2.70049 17.9302 2.00049 22.8702 2.00049 22.8702C2.00049 22.8702 6.94049 22.1702 8.12049 20.9902C8.66049 20.4502 9.00049 19.7002 9.00049 18.8702C9.00049 17.2102 7.66049 15.8702 6.00049 15.8702ZM6.71049 19.5802C6.43049 19.8602 4.54049 20.3402 4.54049 20.3402C4.54049 20.3402 5.01049 18.4602 5.30049 18.1702C5.47049 17.9802 5.72049 17.8702 6.00049 17.8702C6.55049 17.8702 7.00049 18.3202 7.00049 18.8702C7.00049 19.1502 6.89049 19.4002 6.71049 19.5802ZM17.4205 14.5202C23.7805 8.16017 21.6605 3.21017 21.6605 3.21017C21.6605 3.21017 16.7105 1.09017 10.3505 7.45017L7.86049 6.95017C7.21049 6.82017 6.53049 7.03017 6.05049 7.50017L2.00049 11.5602L7.00049 13.7002L11.1705 17.8702L13.3105 22.8702L17.3605 18.8202C17.8305 18.3502 18.0405 17.6702 17.9105 17.0102L17.4205 14.5202ZM7.41049 11.7002L5.50049 10.8802L7.47049 8.91017L8.91049 9.20017C8.34049 10.0302 7.83049 10.9002 7.41049 11.7002ZM13.9905 19.3702L13.1705 17.4602C13.9705 17.0402 14.8405 16.5302 15.6605 15.9602L15.9505 17.4002L13.9905 19.3702ZM16.0005 13.1102C14.6805 14.4302 12.6205 15.5102 11.9605 15.8402L9.03049 12.9102C9.35049 12.2602 10.4305 10.2002 11.7605 8.87017C16.4405 4.19017 19.9905 4.88017 19.9905 4.88017C19.9905 4.88017 20.6805 8.43017 16.0005 13.1102ZM15.0005 11.8702C16.1005 11.8702 17.0005 10.9702 17.0005 9.87017C17.0005 8.77017 16.1005 7.87017 15.0005 7.87017C13.9005 7.87017 13.0005 8.77017 13.0005 9.87017C13.0005 10.9702 13.9005 11.8702 15.0005 11.8702Z" fill="#5995ED"/>
</svg>
