<svg width="24" height="24" viewBox="0 0 24 24" fill="none" xmlns="http://www.w3.org/2000/svg">
<path d="M6.00049 14.9996C5.17049 14.9996 4.42049 15.3396 3.88049 15.8796C2.70049 17.0596 2.00049 21.9996 2.00049 21.9996C2.00049 21.9996 6.94049 21.2996 8.12049 20.1196C8.66049 19.5796 9.00049 18.8296 9.00049 17.9996C9.00049 16.3396 7.66049 14.9996 6.00049 14.9996ZM6.71049 18.7096C6.43049 18.9896 4.54049 19.4696 4.54049 19.4696C4.54049 19.4696 5.01049 17.5896 5.30049 17.2996C5.47049 17.1096 5.72049 16.9996 6.00049 16.9996C6.55049 16.9996 7.00049 17.4496 7.00049 17.9996C7.00049 18.2796 6.89049 18.5296 6.71049 18.7096ZM17.4205 13.6496C23.7805 7.28957 21.6605 2.33957 21.6605 2.33957C21.6605 2.33957 16.7105 0.219566 10.3505 6.57957L7.86049 6.07957C7.21049 5.94957 6.53049 6.15957 6.05049 6.62957L2.00049 10.6896L7.00049 12.8296L11.1705 16.9996L13.3105 21.9996L17.3605 17.9496C17.8305 17.4796 18.0405 16.7996 17.9105 16.1396L17.4205 13.6496ZM7.41049 10.8296L5.50049 10.0096L7.47049 8.03957L8.91049 8.32957C8.34049 9.15957 7.83049 10.0296 7.41049 10.8296ZM13.9905 18.4996L13.1705 16.5896C13.9705 16.1696 14.8405 15.6596 15.6605 15.0896L15.9505 16.5296L13.9905 18.4996ZM16.0005 12.2396C14.6805 13.5596 12.6205 14.6396 11.9605 14.9696L9.03049 12.0396C9.35049 11.3896 10.4305 9.32957 11.7605 7.99957C16.4405 3.31957 19.9905 4.00957 19.9905 4.00957C19.9905 4.00957 20.6805 7.55957 16.0005 12.2396ZM15.0005 10.9996C16.1005 10.9996 17.0005 10.0996 17.0005 8.99957C17.0005 7.89957 16.1005 6.99957 15.0005 6.99957C13.9005 6.99957 13.0005 7.89957 13.0005 8.99957C13.0005 10.0996 13.9005 10.9996 15.0005 10.9996Z" fill="#5995ED"/>
</svg>
