<svg width="24" height="25" viewBox="0 0 24 25" fill="none" xmlns="http://www.w3.org/2000/svg">
<path d="M9.5 14.8706C11.71 14.8706 13.5 13.0806 13.5 10.8706C13.5 8.66061 11.71 6.87061 9.5 6.87061C7.29 6.87061 5.5 8.66061 5.5 10.8706C5.5 13.0806 7.29 14.8706 9.5 14.8706ZM9.5 8.87061C10.6 8.87061 11.5 9.77061 11.5 10.8706C11.5 11.9706 10.6 12.8706 9.5 12.8706C8.4 12.8706 7.5 11.9706 7.5 10.8706C7.5 9.77061 8.4 8.87061 9.5 8.87061Z" fill="#5995ED"/>
<path d="M15.89 17.4306C14.21 16.5706 12.03 15.8706 9.5 15.8706C6.97 15.8706 4.79 16.5706 3.11 17.4306C2.11 17.9406 1.5 18.9706 1.5 20.0906V22.8706H17.5V20.0906C17.5 18.9706 16.89 17.9406 15.89 17.4306ZM15.5 20.8706H3.5V20.0906C3.5 19.7106 3.7 19.3706 4.02 19.2106C5.21 18.6006 7.13 17.8706 9.5 17.8706C11.87 17.8706 13.79 18.6006 14.98 19.2106C15.3 19.3706 15.5 19.7106 15.5 20.0906V20.8706Z" fill="#5995ED"/>
<path d="M19.86 2.87061L18.45 4.28061C21.18 7.01061 21.18 11.4506 18.45 14.1806L19.86 15.5906C23.38 12.0806 23.38 6.38061 19.86 2.87061Z" fill="#5995ED"/>
<path d="M17.04 12.7706C18.99 10.8206 18.99 7.65061 17.04 5.70061L15.63 7.11061C16.8 8.28061 16.8 10.1806 15.63 11.3506L17.04 12.7706Z" fill="#5995ED"/>
</svg>
