<svg width="24" height="25" viewBox="0 0 24 25" fill="none" xmlns="http://www.w3.org/2000/svg">
<path d="M9.5 14.4478C11.71 14.4478 13.5 12.6578 13.5 10.4478C13.5 8.23775 11.71 6.44775 9.5 6.44775C7.29 6.44775 5.5 8.23775 5.5 10.4478C5.5 12.6578 7.29 14.4478 9.5 14.4478ZM9.5 8.44775C10.6 8.44775 11.5 9.34775 11.5 10.4478C11.5 11.5478 10.6 12.4478 9.5 12.4478C8.4 12.4478 7.5 11.5478 7.5 10.4478C7.5 9.34775 8.4 8.44775 9.5 8.44775Z" fill="#5995ED"/>
<path d="M15.89 17.0078C14.21 16.1478 12.03 15.4478 9.5 15.4478C6.97 15.4478 4.79 16.1478 3.11 17.0078C2.11 17.5178 1.5 18.5478 1.5 19.6678V22.4478H17.5V19.6678C17.5 18.5478 16.89 17.5178 15.89 17.0078ZM15.5 20.4478H3.5V19.6678C3.5 19.2878 3.7 18.9478 4.02 18.7878C5.21 18.1778 7.13 17.4478 9.5 17.4478C11.87 17.4478 13.79 18.1778 14.98 18.7878C15.3 18.9478 15.5 19.2878 15.5 19.6678V20.4478Z" fill="#5995ED"/>
<path d="M19.86 2.44775L18.45 3.85775C21.18 6.58775 21.18 11.0278 18.45 13.7578L19.86 15.1678C23.38 11.6578 23.38 5.95775 19.86 2.44775Z" fill="#5995ED"/>
<path d="M17.04 12.3478C18.99 10.3978 18.99 7.22775 17.04 5.27775L15.63 6.68775C16.8 7.85775 16.8 9.75775 15.63 10.9278L17.04 12.3478Z" fill="#5995ED"/>
</svg>
