<svg width="87" height="37" viewBox="0 0 87 37" fill="none" xmlns="http://www.w3.org/2000/svg">
<path d="M15.9588 6.82136H12.2259C12.1577 6.3384 12.0185 5.90942 11.8082 5.53442C11.598 5.15374 11.3281 4.82988 10.9986 4.56283C10.669 4.29579 10.2884 4.09124 9.85653 3.9492C9.4304 3.80715 8.96733 3.73613 8.46733 3.73613C7.56392 3.73613 6.77699 3.96056 6.10653 4.40942C5.43608 4.85261 4.91619 5.50033 4.54688 6.35261C4.17756 7.1992 3.9929 8.22761 3.9929 9.43783C3.9929 10.6822 4.17756 11.7276 4.54688 12.5742C4.92188 13.4208 5.4446 14.06 6.11506 14.4918C6.78551 14.9236 7.56108 15.1395 8.44176 15.1395C8.93608 15.1395 9.39347 15.0742 9.81392 14.9435C10.2401 14.8128 10.6179 14.6225 10.9474 14.3725C11.277 14.1168 11.5497 13.8072 11.7656 13.4435C11.9872 13.0799 12.1406 12.6651 12.2259 12.1992L15.9588 12.2162C15.8622 13.0174 15.6207 13.7901 15.2344 14.5344C14.8537 15.2731 14.3395 15.935 13.6918 16.5202C13.0497 17.0998 12.2827 17.56 11.3906 17.9009C10.5043 18.2361 9.50142 18.4037 8.3821 18.4037C6.82528 18.4037 5.43324 18.0515 4.20597 17.3469C2.98438 16.6424 2.01847 15.6225 1.30824 14.2873C0.603693 12.952 0.25142 11.3356 0.25142 9.43783C0.25142 7.53442 0.609375 5.91511 1.32528 4.57988C2.04119 3.24465 3.01278 2.22761 4.24006 1.52874C5.46733 0.824197 6.84801 0.471924 8.3821 0.471924C9.39347 0.471924 10.331 0.613969 11.1946 0.89806C12.0639 1.18215 12.8338 1.59692 13.5043 2.14238C14.1747 2.68215 14.7202 3.34408 15.1406 4.12817C15.5668 4.91226 15.8395 5.80999 15.9588 6.82136Z" fill="black"/>
<path d="M22.2699 18.4123C21.4347 18.4123 20.6903 18.2674 20.0369 17.9776C19.3835 17.6822 18.8665 17.2475 18.4858 16.6736C18.1108 16.0941 17.9233 15.3725 17.9233 14.5089C17.9233 13.7816 18.0568 13.1708 18.3239 12.6765C18.5909 12.1822 18.9545 11.7844 19.4148 11.4833C19.875 11.1822 20.3977 10.9549 20.983 10.8015C21.5739 10.6481 22.1932 10.5401 22.8409 10.4776C23.6023 10.3981 24.2159 10.3242 24.6818 10.256C25.1477 10.1822 25.4858 10.0742 25.696 9.93215C25.9062 9.79011 26.0114 9.57988 26.0114 9.30147V9.25033C26.0114 8.71056 25.8409 8.29295 25.5 7.99749C25.1648 7.70204 24.6875 7.55431 24.0682 7.55431C23.4148 7.55431 22.8949 7.6992 22.5085 7.98897C22.1222 8.27306 21.8665 8.63102 21.7415 9.06283L18.3835 8.79011C18.554 7.99465 18.8892 7.30715 19.3892 6.72761C19.8892 6.14238 20.5341 5.69351 21.3239 5.38101C22.1193 5.06283 23.0398 4.90374 24.0852 4.90374C24.8125 4.90374 25.5085 4.98897 26.1733 5.15942C26.8438 5.32988 27.4375 5.59408 27.9545 5.95204C28.4773 6.30999 28.8892 6.77022 29.1903 7.33272C29.4915 7.88954 29.642 8.55715 29.642 9.33556V18.1651H26.1989V16.3498H26.0966C25.8864 16.7589 25.6051 17.1197 25.2528 17.4322C24.9006 17.739 24.4773 17.9804 23.983 18.1566C23.4886 18.327 22.9176 18.4123 22.2699 18.4123ZM23.3097 15.9066C23.8438 15.9066 24.3153 15.8015 24.7244 15.5912C25.1335 15.3753 25.4545 15.0856 25.6875 14.7219C25.9205 14.3583 26.0369 13.9464 26.0369 13.4861V12.0969C25.9233 12.1708 25.767 12.239 25.5682 12.3015C25.375 12.3583 25.1562 12.4123 24.9119 12.4634C24.6676 12.5089 24.4233 12.5515 24.179 12.5912C23.9347 12.6253 23.7131 12.6566 23.5142 12.685C23.0881 12.7475 22.7159 12.8469 22.3977 12.9833C22.0795 13.1197 21.8324 13.3043 21.6562 13.5373C21.4801 13.7645 21.392 14.0486 21.392 14.3895C21.392 14.8839 21.571 15.2617 21.929 15.5231C22.2926 15.7787 22.7528 15.9066 23.3097 15.9066Z" fill="black"/>
<path d="M32.4588 18.1651V5.0742H35.919V7.38386H36.0724C36.3452 6.61681 36.7997 6.0117 37.4361 5.56851C38.0724 5.12533 38.8338 4.90374 39.7202 4.90374C40.6179 4.90374 41.3821 5.12817 42.0128 5.57704C42.6435 6.02022 43.0639 6.62249 43.2741 7.38386H43.4105C43.6776 6.63386 44.1605 6.03442 44.8594 5.58556C45.5639 5.13102 46.3963 4.90374 47.3565 4.90374C48.5781 4.90374 49.5696 5.29295 50.331 6.07136C51.098 6.84408 51.4815 7.94067 51.4815 9.36113V18.1651H47.8594V10.077C47.8594 9.34976 47.6662 8.80431 47.2798 8.44067C46.8935 8.07704 46.4105 7.89522 45.831 7.89522C45.1719 7.89522 44.6577 8.10545 44.2884 8.5259C43.919 8.94067 43.7344 9.48897 43.7344 10.1708V18.1651H40.2145V10.0003C40.2145 9.35829 40.0298 8.84692 39.6605 8.46624C39.2969 8.08556 38.8168 7.89522 38.2202 7.89522C37.8168 7.89522 37.4531 7.99749 37.1293 8.20204C36.8111 8.4009 36.5582 8.68215 36.3707 9.04579C36.1832 9.40374 36.0895 9.8242 36.0895 10.3072V18.1651H32.4588Z" fill="black"/>
<path d="M65.2415 8.80715L61.9176 9.0117C61.8608 8.72761 61.7386 8.47192 61.5511 8.24465C61.3636 8.0117 61.1165 7.82704 60.8097 7.69067C60.5085 7.54863 60.1477 7.47761 59.7273 7.47761C59.1648 7.47761 58.6903 7.59692 58.304 7.83556C57.9176 8.06851 57.7244 8.38101 57.7244 8.77306C57.7244 9.08556 57.8494 9.34977 58.0994 9.56567C58.3494 9.78158 58.7784 9.95488 59.3864 10.0856L61.7557 10.5628C63.0284 10.8242 63.9773 11.2447 64.6023 11.8242C65.2273 12.4037 65.5398 13.1651 65.5398 14.1083C65.5398 14.9662 65.2869 15.7191 64.7812 16.3668C64.2812 17.0145 63.5938 17.5202 62.7188 17.8839C61.8494 18.2418 60.8466 18.4208 59.7102 18.4208C57.9773 18.4208 56.5966 18.06 55.5682 17.3384C54.5455 16.6111 53.946 15.6225 53.7699 14.3725L57.3409 14.185C57.4489 14.7134 57.7102 15.1168 58.125 15.3952C58.5398 15.6679 59.071 15.8043 59.7188 15.8043C60.3551 15.8043 60.8665 15.6822 61.2528 15.4378C61.6449 15.1878 61.8438 14.8668 61.8494 14.4748C61.8438 14.1452 61.7045 13.8753 61.4318 13.6651C61.1591 13.4492 60.7386 13.2844 60.1705 13.1708L57.9034 12.7191C56.625 12.4634 55.6733 12.0202 55.0483 11.3895C54.429 10.7589 54.1193 9.95488 54.1193 8.97761C54.1193 8.1367 54.3466 7.41226 54.8011 6.80431C55.2614 6.19636 55.9062 5.72761 56.7358 5.39806C57.571 5.06852 58.5483 4.90374 59.6676 4.90374C61.321 4.90374 62.6222 5.25317 63.571 5.95204C64.5256 6.6509 65.0824 7.60261 65.2415 8.80715Z" fill="black"/>
<path d="M73.7408 18.4208C72.4169 18.4208 71.272 18.1395 70.3061 17.577C69.3459 17.0089 68.6044 16.2191 68.0817 15.2077C67.5589 14.1907 67.2976 13.0117 67.2976 11.6708C67.2976 10.3185 67.5589 9.1367 68.0817 8.12533C68.6044 7.10829 69.3459 6.31851 70.3061 5.75601C71.272 5.18783 72.4169 4.90374 73.7408 4.90374C75.0646 4.90374 76.2067 5.18783 77.1669 5.75601C78.1328 6.31851 78.8771 7.10829 79.3999 8.12533C79.9226 9.1367 80.184 10.3185 80.184 11.6708C80.184 13.0117 79.9226 14.1907 79.3999 15.2077C78.8771 16.2191 78.1328 17.0089 77.1669 17.577C76.2067 18.1395 75.0646 18.4208 73.7408 18.4208ZM73.7578 15.6083C74.3601 15.6083 74.8629 15.4378 75.2663 15.0969C75.6697 14.7503 75.9737 14.2787 76.1783 13.6822C76.3885 13.0856 76.4936 12.4066 76.4936 11.6452C76.4936 10.8839 76.3885 10.2049 76.1783 9.60829C75.9737 9.0117 75.6697 8.54011 75.2663 8.19351C74.8629 7.84692 74.3601 7.67363 73.7578 7.67363C73.1499 7.67363 72.6385 7.84692 72.2237 8.19351C71.8146 8.54011 71.505 9.0117 71.2947 9.60829C71.0902 10.2049 70.9879 10.8839 70.9879 11.6452C70.9879 12.4066 71.0902 13.0856 71.2947 13.6822C71.505 14.2787 71.8146 14.7503 72.2237 15.0969C72.6385 15.4378 73.1499 15.6083 73.7578 15.6083Z" fill="black"/>
<path d="M86.1754 0.71056V18.1651H82.5447V0.71056H86.1754Z" fill="black"/>
<path d="M1.31676 27.4378V36.1651H0V27.4378H1.31676Z" fill="#4777BE"/>
<path d="M4.40625 32.2787V36.1651H3.1321V29.6197H4.35511V30.685H4.43608C4.58665 30.3384 4.82244 30.06 5.14347 29.8498C5.46733 29.6395 5.875 29.5344 6.36648 29.5344C6.8125 29.5344 7.20312 29.6282 7.53835 29.8157C7.87358 30.0003 8.13352 30.2759 8.31818 30.6424C8.50284 31.0089 8.59517 31.462 8.59517 32.0018V36.1651H7.32102V32.1552C7.32102 31.6807 7.19744 31.31 6.95028 31.0429C6.70312 30.7731 6.36364 30.6381 5.93182 30.6381C5.63636 30.6381 5.37358 30.702 5.14347 30.8299C4.91619 30.9577 4.7358 31.1452 4.60227 31.3924C4.47159 31.6367 4.40625 31.9322 4.40625 32.2787Z" fill="#4777BE"/>
<path d="M11.5781 32.2787V36.1651H10.304V29.6197H11.527V30.685H11.608C11.7585 30.3384 11.9943 30.06 12.3153 29.8498C12.6392 29.6395 13.0469 29.5344 13.5384 29.5344C13.9844 29.5344 14.375 29.6282 14.7102 29.8157C15.0455 30.0003 15.3054 30.2759 15.4901 30.6424C15.6747 31.0089 15.767 31.462 15.767 32.0018V36.1651H14.4929V32.1552C14.4929 31.6807 14.3693 31.31 14.1222 31.0429C13.875 30.7731 13.5355 30.6381 13.1037 30.6381C12.8082 30.6381 12.5455 30.702 12.3153 30.8299C12.0881 30.9577 11.9077 31.1452 11.7741 31.3924C11.6435 31.6367 11.5781 31.9322 11.5781 32.2787Z" fill="#4777BE"/>
<path d="M20.233 36.2972C19.6193 36.2972 19.0838 36.1566 18.6264 35.8753C18.169 35.5941 17.8139 35.2006 17.5611 34.6949C17.3082 34.1893 17.1818 33.5983 17.1818 32.9222C17.1818 32.2432 17.3082 31.6495 17.5611 31.141C17.8139 30.6324 18.169 30.2375 18.6264 29.9563C19.0838 29.675 19.6193 29.5344 20.233 29.5344C20.8466 29.5344 21.3821 29.675 21.8395 29.9563C22.2969 30.2375 22.652 30.6324 22.9048 31.141C23.1577 31.6495 23.2841 32.2432 23.2841 32.9222C23.2841 33.5983 23.1577 34.1893 22.9048 34.6949C22.652 35.2006 22.2969 35.5941 21.8395 35.8753C21.3821 36.1566 20.8466 36.2972 20.233 36.2972ZM20.2372 35.2276C20.6349 35.2276 20.9645 35.1225 21.2259 34.9123C21.4872 34.702 21.6804 34.4222 21.8054 34.0728C21.9332 33.7233 21.9972 33.3384 21.9972 32.9179C21.9972 32.5003 21.9332 32.1168 21.8054 31.7674C21.6804 31.4151 21.4872 31.1324 21.2259 30.9194C20.9645 30.7063 20.6349 30.5998 20.2372 30.5998C19.8366 30.5998 19.5043 30.7063 19.2401 30.9194C18.9787 31.1324 18.7841 31.4151 18.6562 31.7674C18.5312 32.1168 18.4688 32.5003 18.4688 32.9179C18.4688 33.3384 18.5312 33.7233 18.6562 34.0728C18.7841 34.4222 18.9787 34.702 19.2401 34.9123C19.5043 35.1225 19.8366 35.2276 20.2372 35.2276Z" fill="#4777BE"/>
<path d="M30.0831 29.6197L27.7095 36.1651H26.3459L23.968 29.6197H25.3359L26.9936 34.6566H27.0618L28.7152 29.6197H30.0831Z" fill="#4777BE"/>
<path d="M32.9979 36.31C32.5831 36.31 32.2081 36.2333 31.8729 36.0799C31.5376 35.9236 31.272 35.6978 31.076 35.4023C30.8828 35.1069 30.7862 34.7447 30.7862 34.3157C30.7862 33.9464 30.8572 33.6424 30.9993 33.4037C31.1413 33.1651 31.3331 32.9762 31.5746 32.837C31.8161 32.6978 32.0859 32.5927 32.3842 32.5216C32.6825 32.4506 32.9865 32.3966 33.2962 32.3597C33.6882 32.3143 34.0064 32.2773 34.2507 32.2489C34.495 32.2177 34.6726 32.1679 34.7834 32.0998C34.8942 32.0316 34.9496 31.9208 34.9496 31.7674V31.7375C34.9496 31.3654 34.8445 31.077 34.6342 30.8725C34.4268 30.6679 34.1172 30.5657 33.7053 30.5657C33.2763 30.5657 32.9382 30.6608 32.6911 30.8512C32.4467 31.0387 32.2777 31.2475 32.1839 31.4776L30.9865 31.2049C31.1286 30.8072 31.3359 30.4861 31.6087 30.2418C31.8842 29.9946 32.201 29.8157 32.5589 29.7049C32.9169 29.5912 33.2933 29.5344 33.6882 29.5344C33.9496 29.5344 34.2266 29.5657 34.5192 29.6282C34.8146 29.6878 35.0902 29.7986 35.3459 29.9606C35.6044 30.1225 35.8161 30.354 35.9808 30.6552C36.1456 30.9535 36.228 31.3412 36.228 31.8185V36.1651H34.9837V35.2702H34.9325C34.8501 35.435 34.7266 35.5969 34.5618 35.756C34.397 35.9151 34.1854 36.0472 33.9268 36.1523C33.6683 36.2574 33.3587 36.31 32.9979 36.31ZM33.2749 35.2873C33.6271 35.2873 33.9283 35.2177 34.1783 35.0785C34.4311 34.9393 34.6229 34.7574 34.7536 34.533C34.8871 34.3057 34.9538 34.0628 34.9538 33.8043V32.9606C34.9084 33.006 34.8203 33.0486 34.6896 33.0884C34.5618 33.1253 34.4155 33.158 34.2507 33.1864C34.0859 33.212 33.9254 33.2361 33.7692 33.2589C33.6129 33.2787 33.4822 33.2958 33.3771 33.31C33.13 33.3412 32.9041 33.3938 32.6996 33.4677C32.4979 33.5415 32.3359 33.6481 32.2138 33.7873C32.0945 33.9236 32.0348 34.1054 32.0348 34.3327C32.0348 34.6481 32.1513 34.8867 32.3842 35.0486C32.6172 35.2077 32.9141 35.2873 33.2749 35.2873Z" fill="#4777BE"/>
<path d="M40.9805 29.6197V30.6424H37.4052V29.6197H40.9805ZM38.364 28.0515H39.6381V34.2432C39.6381 34.4904 39.6751 34.6765 39.7489 34.8015C39.8228 34.9236 39.918 35.0074 40.0344 35.0529C40.1538 35.0955 40.283 35.1168 40.4222 35.1168C40.5245 35.1168 40.614 35.1097 40.6907 35.0955C40.7674 35.0813 40.8271 35.0699 40.8697 35.0614L41.0998 36.114C41.0259 36.1424 40.9208 36.1708 40.7844 36.1992C40.6481 36.2304 40.4776 36.2475 40.2731 36.2503C39.9379 36.256 39.6254 36.1964 39.3356 36.0714C39.0458 35.9464 38.8114 35.7532 38.6325 35.4918C38.4535 35.2304 38.364 34.9023 38.364 34.5074V28.0515Z" fill="#4777BE"/>
<path d="M42.3899 36.1651V29.6197H43.6641V36.1651H42.3899ZM43.0334 28.6097C42.8118 28.6097 42.6214 28.5358 42.4624 28.3881C42.3061 28.2375 42.228 28.0586 42.228 27.8512C42.228 27.641 42.3061 27.462 42.4624 27.3143C42.6214 27.1637 42.8118 27.0884 43.0334 27.0884C43.255 27.0884 43.4439 27.1637 43.6001 27.3143C43.7592 27.462 43.8388 27.641 43.8388 27.8512C43.8388 28.0586 43.7592 28.2375 43.6001 28.3881C43.4439 28.5358 43.255 28.6097 43.0334 28.6097Z" fill="#4777BE"/>
<path d="M48.1353 36.2972C47.5217 36.2972 46.9861 36.1566 46.5288 35.8753C46.0714 35.5941 45.7163 35.2006 45.4634 34.6949C45.2106 34.1893 45.0842 33.5983 45.0842 32.9222C45.0842 32.2432 45.2106 31.6495 45.4634 31.141C45.7163 30.6324 46.0714 30.2375 46.5288 29.9563C46.9861 29.675 47.5217 29.5344 48.1353 29.5344C48.7489 29.5344 49.2844 29.675 49.7418 29.9563C50.1992 30.2375 50.5543 30.6324 50.8072 31.141C51.06 31.6495 51.1864 32.2432 51.1864 32.9222C51.1864 33.5983 51.06 34.1893 50.8072 34.6949C50.5543 35.2006 50.1992 35.5941 49.7418 35.8753C49.2844 36.1566 48.7489 36.2972 48.1353 36.2972ZM48.1396 35.2276C48.5373 35.2276 48.8668 35.1225 49.1282 34.9123C49.3896 34.702 49.5827 34.4222 49.7077 34.0728C49.8356 33.7233 49.8995 33.3384 49.8995 32.9179C49.8995 32.5003 49.8356 32.1168 49.7077 31.7674C49.5827 31.4151 49.3896 31.1324 49.1282 30.9194C48.8668 30.7063 48.5373 30.5998 48.1396 30.5998C47.739 30.5998 47.4066 30.7063 47.1424 30.9194C46.881 31.1324 46.6864 31.4151 46.5586 31.7674C46.4336 32.1168 46.3711 32.5003 46.3711 32.9179C46.3711 33.3384 46.4336 33.7233 46.5586 34.0728C46.6864 34.4222 46.881 34.702 47.1424 34.9123C47.4066 35.1225 47.739 35.2276 48.1396 35.2276Z" fill="#4777BE"/>
<path d="M53.8828 32.2787V36.1651H52.6087V29.6197H53.8317V30.685H53.9126C54.0632 30.3384 54.299 30.06 54.62 29.8498C54.9439 29.6395 55.3516 29.5344 55.843 29.5344C56.2891 29.5344 56.6797 29.6282 57.0149 29.8157C57.3501 30.0003 57.6101 30.2759 57.7947 30.6424C57.9794 31.0089 58.0717 31.462 58.0717 32.0018V36.1651H56.7976V32.1552C56.7976 31.6807 56.674 31.31 56.4268 31.0429C56.1797 30.7731 55.8402 30.6381 55.4084 30.6381C55.1129 30.6381 54.8501 30.702 54.62 30.8299C54.3928 30.9577 54.2124 31.1452 54.0788 31.3924C53.9482 31.6367 53.8828 31.9322 53.8828 32.2787Z" fill="#4777BE"/>
</svg>
