<svg width="24" height="25" viewBox="0 0 24 25" fill="none" xmlns="http://www.w3.org/2000/svg">
<path d="M16.5 13.6206C19.59 10.8106 22.5 8.18061 22.5 5.92061C22.5 4.07061 21.05 2.62061 19.2 2.62061C18.16 2.62061 17.15 3.11061 16.5 3.87061C15.84 3.11061 14.84 2.62061 13.8 2.62061C11.95 2.62061 10.5 4.07061 10.5 5.92061C10.5 8.18061 13.41 10.8106 16.5 13.6206ZM13.8 4.62061C14.24 4.62061 14.69 4.83061 14.98 5.17061L16.5 6.96061L18.02 5.17061C18.31 4.83061 18.76 4.62061 19.2 4.62061C19.94 4.62061 20.5 5.18061 20.5 5.92061C20.5 7.04061 18.46 9.09061 16.5 10.9106C14.54 9.09061 12.5 7.03061 12.5 5.92061C12.5 5.18061 13.06 4.62061 13.8 4.62061Z" fill="#5995ED"/>
<path d="M19.5 16.6206H17.5C17.5 15.4206 16.75 14.3406 15.63 13.9206L9.47 11.6206H1.5V22.6206H7.5V21.1806L14.5 23.1206L22.5 20.6206V19.6206C22.5 17.9606 21.16 16.6206 19.5 16.6206ZM3.5 20.6206V13.6206H5.5V20.6206H3.5ZM14.47 21.0306L7.5 19.1006V13.6206H9.11L14.93 15.7906C15.27 15.9206 15.5 16.2506 15.5 16.6206C15.5 16.6206 13.51 16.5706 13.2 16.4706L10.82 15.6806L10.19 17.5806L12.57 18.3706C13.08 18.5406 13.61 18.6306 14.15 18.6306H19.5C19.89 18.6306 20.24 18.8606 20.4 19.1906L14.47 21.0306Z" fill="#5995ED"/>
</svg>
